<svg width="452" height="162" viewBox="0 0 452 162" fill="none" xmlns="http://www.w3.org/2000/svg">
<path d="M40 0H63C64.1046 0 65 0.895431 65 2V148C65 149.105 64.1046 150 63 150H40V0Z" fill="#282C31"/>
<path d="M1.51981 2.92271C0.827473 1.59129 1.79358 0 3.29424 0H40V25H14.2142C13.4681 25 12.784 24.5847 12.4398 23.9227L1.51981 2.92271Z" fill="#282C31"/>
<path d="M337 2C337 0.895429 337.895 0 339 0H360C361.105 0 362 0.895431 362 2V148C362 149.105 361.105 150 360 150H339C337.895 150 337 149.105 337 148V2Z" fill="#282C31" fill-opacity="0.4"/>
<path d="M287 2C287 0.895429 287.895 0 289 0H310C311.105 0 312 0.895431 312 2V150H287V2Z" fill="#282C31" fill-opacity="0.4"/>
<path d="M212 2C212 0.895429 212.895 0 214 0H235C236.105 0 237 0.895431 237 2V150H212V2Z" fill="#282C31" fill-opacity="0.4"/>
<path d="M162 2C162 0.89543 162.895 0 164 0H185C186.105 0 187 0.89543 187 2V83.6454C187 85.7413 184.186 86.4256 183.223 84.5636L162.223 43.932C162.077 43.6481 162 43.3333 162 43.0137V2Z" fill="#282C31" fill-opacity="0.4"/>
<rect x="237" y="125" width="50" height="25" fill="#282C31" fill-opacity="0.4"/>
<rect x="387" width="25" height="150" fill="#282C31" fill-opacity="0.4"/>
<path d="M450.48 2.92271C451.173 1.59129 450.206 0 448.706 0H412V25H437.786C438.532 25 439.216 24.5847 439.56 23.9227L450.48 2.92271Z" fill="#282C31" fill-opacity="0.4"/>
<path d="M0 127C0 125.895 0.895431 125 2 125H40V150H2C0.895431 150 0 149.105 0 148V127Z" fill="#282C31"/>
<path d="M87.924 13.2813C87.4141 12.3004 87.7967 11.0919 88.7782 10.5832L107.42 0.920409C108.4 0.412087 109.607 0.794987 110.116 1.77564L185.437 147.085C186.127 148.416 185.16 150.005 183.661 150.005L160.212 150.005C159.466 150.005 158.782 149.59 158.438 148.927L87.924 13.2813Z" fill="#282C31"/>
<rect x="84" width="24.9992" height="149.995" rx="2" fill="#282C31"/>
</svg>
