<svg width="183" height="162" viewBox="0 0 183 162" fill="none" xmlns="http://www.w3.org/2000/svg">
<path d="M40 0H63C64.1046 0 65 0.895431 65 2V148C65 149.105 64.1046 150 63 150H40V0Z" fill="#282C31"/>
<path d="M1.51981 2.92271C0.827473 1.59129 1.79358 0 3.29424 0H40V25H14.2142C13.4681 25 12.784 24.5847 12.4398 23.9227L1.51981 2.92271Z" fill="#282C31"/>
<path d="M0 127C0 125.895 0.895431 125 2 125H40V150H2C0.895431 150 0 149.105 0 148V127Z" fill="#282C31"/>
<path d="M83.924 13.2813C83.4141 12.3004 83.7967 11.0919 84.7782 10.5832L104.307 0.460209C104.798 0.206048 105.401 0.397498 105.655 0.887825L181.437 147.085C182.127 148.416 181.16 150.005 179.661 150.005L156.212 150.005C155.466 150.005 154.782 149.59 154.438 148.927L83.924 13.2813Z" fill="#282C31"/>
<rect x="81" width="24.9992" height="149.995" rx="2" fill="#282C31"/>
</svg>
