<svg width="191" height="169" viewBox="0 0 191 169" fill="none" xmlns="http://www.w3.org/2000/svg">
<g filter="url(#filter0_d)">
<path d="M44 0H67C68.1046 0 69 0.895431 69 2V148C69 149.105 68.1046 150 67 150H44V0Z" fill="white"/>
<path d="M5.51981 2.92271C4.82747 1.59129 5.79358 0 7.29424 0H44V25H18.2142C17.4681 25 16.784 24.5847 16.4398 23.9227L5.51981 2.92271Z" fill="white"/>
<path d="M4 127C4 125.895 4.89543 125 6 125H44V150H6C4.89543 150 4 149.105 4 148V127Z" fill="white"/>
<path d="M87.924 13.2813C87.4141 12.3004 87.7967 11.0919 88.7782 10.5832L108.307 0.460209C108.798 0.206048 109.401 0.397498 109.655 0.887825L185.437 147.085C186.127 148.416 185.16 150.005 183.661 150.005L160.212 150.005C159.466 150.005 158.782 149.59 158.438 148.927L87.924 13.2813Z" fill="white"/>
<rect x="85" width="24.9992" height="149.995" rx="2" fill="white"/>
</g>
<defs>
<filter id="filter0_d" x="0" y="0" width="190.358" height="168.366" filterUnits="userSpaceOnUse" color-interpolation-filters="sRGB">
<feFlood flood-opacity="0" result="BackgroundImageFix"/>
<feColorMatrix in="SourceAlpha" type="matrix" values="0 0 0 0 0 0 0 0 0 0 0 0 0 0 0 0 0 0 127 0"/>
<feOffset dy="4"/>
<feGaussianBlur stdDeviation="2"/>
<feColorMatrix type="matrix" values="0 0 0 0 0 0 0 0 0 0 0 0 0 0 0 0 0 0 0.25 0"/>
<feBlend mode="normal" in2="BackgroundImageFix" result="effect1_dropShadow"/>
<feBlend mode="normal" in="SourceGraphic" in2="effect1_dropShadow" result="shape"/>
</filter>
</defs>
</svg>
