<svg width="460" height="169" viewBox="0 0 460 169" fill="none" xmlns="http://www.w3.org/2000/svg">
<g filter="url(#filter0_d)">
<path d="M44 0H67C68.1046 0 69 0.895431 69 2V148C69 149.105 68.1046 150 67 150H44V0Z" fill="white"/>
<path d="M5.51981 2.92271C4.82747 1.59129 5.79358 0 7.29424 0H44V25H18.2142C17.4681 25 16.784 24.5847 16.4398 23.9227L5.51981 2.92271Z" fill="white"/>
<path d="M4 127C4 125.895 4.89543 125 6 125H44V150H6C4.89543 150 4 149.105 4 148V127Z" fill="white"/>
<path d="M91.924 13.2813C91.4141 12.3004 91.7967 11.0919 92.7782 10.5832L111.42 0.920409C112.4 0.412086 113.607 0.794987 114.116 1.77564L189.437 147.085C190.127 148.416 189.16 150.005 187.661 150.005L164.212 150.005C163.466 150.005 162.782 149.59 162.438 148.927L91.924 13.2813Z" fill="white"/>
<rect x="88" width="24.9992" height="149.995" rx="2" fill="white"/>
</g>
<g filter="url(#filter1_d)">
<path opacity="0.5" d="M342 2C342 0.895429 342.895 0 344 0H365C366.105 0 367 0.895431 367 2V148C367 149.105 366.105 150 365 150H344C342.895 150 342 149.105 342 148V2Z" fill="white" fill-opacity="0.5"/>
<path opacity="0.5" d="M292 2C292 0.895429 292.895 0 294 0H315C316.105 0 317 0.895431 317 2V150H292V2Z" fill="white" fill-opacity="0.5"/>
<path opacity="0.5" d="M217 2C217 0.895429 217.895 0 219 0H240C241.105 0 242 0.895431 242 2V150H217V2Z" fill="white" fill-opacity="0.5"/>
<path opacity="0.5" d="M167 2C167 0.89543 167.895 0 169 0H190C191.105 0 192 0.89543 192 2V83.6454C192 85.7413 189.186 86.4256 188.223 84.5636L167.223 43.932C167.077 43.6481 167 43.3333 167 43.0137V2Z" fill="white" fill-opacity="0.5"/>
<rect opacity="0.5" x="242" y="125" width="50" height="25" fill="white" fill-opacity="0.5"/>
<rect opacity="0.5" x="392" width="25" height="150" fill="white" fill-opacity="0.5"/>
<path opacity="0.5" d="M455.48 2.92271C456.173 1.59129 455.206 0 453.706 0H417V25H442.786C443.532 25 444.216 24.5847 444.56 23.9227L455.48 2.92271Z" fill="white" fill-opacity="0.5"/>
</g>
<defs>
<filter id="filter0_d" x="0" y="0" width="194.358" height="168.366" filterUnits="userSpaceOnUse" color-interpolation-filters="sRGB">
<feFlood flood-opacity="0" result="BackgroundImageFix"/>
<feColorMatrix in="SourceAlpha" type="matrix" values="0 0 0 0 0 0 0 0 0 0 0 0 0 0 0 0 0 0 127 0"/>
<feOffset dy="4"/>
<feGaussianBlur stdDeviation="2"/>
<feColorMatrix type="matrix" values="0 0 0 0 0 0 0 0 0 0 0 0 0 0 0 0 0 0 0.25 0"/>
<feBlend mode="normal" in2="BackgroundImageFix" result="effect1_dropShadow"/>
<feBlend mode="normal" in="SourceGraphic" in2="effect1_dropShadow" result="shape"/>
</filter>
<filter id="filter1_d" x="163" y="0" width="296.708" height="158" filterUnits="userSpaceOnUse" color-interpolation-filters="sRGB">
<feFlood flood-opacity="0" result="BackgroundImageFix"/>
<feColorMatrix in="SourceAlpha" type="matrix" values="0 0 0 0 0 0 0 0 0 0 0 0 0 0 0 0 0 0 127 0"/>
<feOffset dy="4"/>
<feGaussianBlur stdDeviation="2"/>
<feColorMatrix type="matrix" values="0 0 0 0 0 0 0 0 0 0 0 0 0 0 0 0 0 0 0.25 0"/>
<feBlend mode="normal" in2="BackgroundImageFix" result="effect1_dropShadow"/>
<feBlend mode="normal" in="SourceGraphic" in2="effect1_dropShadow" result="shape"/>
</filter>
</defs>
</svg>
